# xmcd
#
# Track frame offsets: 
#        150
#        15840
#        30460
#        52425
#        67252
#        81637
#        94987
#        111277
#        127970
#        147572
#        164677
#        180065
#        193560
#        209380
#        222687
#        240357
#        258850
#        272060
#        285040
#
# Disc length: 3985 seconds
#
# Revision: 9
# Processed by: cddbd v1.5.2PL0 Copyright (c) Steve Scherf et al.
# Submitted via: ExactAudioCopy v1.3
#
DISCID=1b0f8f13
DTITLE=Brooks and Dunn - The Greatest Hits Collection
DYEAR=1997
DGENRE=Country
TTITLE0=My Maria
TTITLE1=Honky Tonk Truth
TTITLE2=You're Gonna Miss Me When I'm Gone
TTITLE3=Boot Scootin' Boogie
TTITLE4=He's Got You
TTITLE5=Hard Workin' Man
TTITLE6=That Ain't No Way To Go
TTITLE7=Rock My World (Little Country Girl)
TTITLE8=Neon Moon
TTITLE9=Lost And Found
TTITLE10=She's Not The Cheatin' Kind
TTITLE11=Brand New Man
TTITLE12=Days Of Thunder
TTITLE13=We'll Burn That Bridge
TTITLE14=She Used To Be Mine
TTITLE15=Mama Don't Get Dressed Up For Nothing
TTITLE16=My Next Broken Heart
TTITLE17=Whiskey Under The Bridge
TTITLE18=Little Miss Honky Tonk
EXTD=YEAR: 1997
EXTT0=
EXTT1=
EXTT2=
EXTT3=
EXTT4=
EXTT5=
EXTT6=
EXTT7=
EXTT8=
EXTT9=
EXTT10=
EXTT11=
EXTT12=
EXTT13=
EXTT14=
EXTT15=
EXTT16=
EXTT17=
EXTT18=
PLAYORDER=
